<svg width="32" height="32" viewBox="0 0 32 32" fill="none" xmlns="http://www.w3.org/2000/svg">
<path d="M18.6667 24.0002V8.00016C18.6667 7.29292 18.3858 6.61464 17.8857 6.11454C17.3856 5.61445 16.7073 5.3335 16.0001 5.3335H5.33341C4.62617 5.3335 3.94789 5.61445 3.4478 6.11454C2.9477 6.61464 2.66675 7.29292 2.66675 8.00016V22.6668C2.66675 23.0205 2.80722 23.3596 3.05727 23.6096C3.30732 23.8597 3.64646 24.0002 4.00008 24.0002H6.66675" stroke="#2B7FFF" stroke-width="2.66667" stroke-linecap="round" stroke-linejoin="round"/>
<path d="M20 24H12" stroke="#2B7FFF" stroke-width="2.66667" stroke-linecap="round" stroke-linejoin="round"/>
<path d="M25.3332 23.9998H27.9998C28.3535 23.9998 28.6926 23.8594 28.9426 23.6093C29.1927 23.3593 29.3332 23.0201 29.3332 22.6665V17.7998C29.3326 17.4973 29.2292 17.2039 29.0398 16.9678L24.3998 11.1678C24.2751 11.0117 24.1169 10.8855 23.9369 10.7988C23.7569 10.712 23.5597 10.6668 23.3598 10.6665H18.6665" stroke="#2B7FFF" stroke-width="2.66667" stroke-linecap="round" stroke-linejoin="round"/>
<path d="M22.6667 26.6668C24.1394 26.6668 25.3333 25.4729 25.3333 24.0002C25.3333 22.5274 24.1394 21.3335 22.6667 21.3335C21.1939 21.3335 20 22.5274 20 24.0002C20 25.4729 21.1939 26.6668 22.6667 26.6668Z" stroke="#2B7FFF" stroke-width="2.66667" stroke-linecap="round" stroke-linejoin="round"/>
<path d="M9.33341 26.6668C10.8062 26.6668 12.0001 25.4729 12.0001 24.0002C12.0001 22.5274 10.8062 21.3335 9.33341 21.3335C7.86066 21.3335 6.66675 22.5274 6.66675 24.0002C6.66675 25.4729 7.86066 26.6668 9.33341 26.6668Z" stroke="#2B7FFF" stroke-width="2.66667" stroke-linecap="round" stroke-linejoin="round"/>
</svg>
