<svg width="16" height="16" viewBox="0 0 16 16" fill="none" xmlns="http://www.w3.org/2000/svg">
<g clip-path="url(#clip0_41_584)">
<path d="M11.3335 1.33301H4.66683C2.82588 1.33301 1.3335 2.82539 1.3335 4.66634V11.333C1.3335 13.174 2.82588 14.6663 4.66683 14.6663H11.3335C13.1744 14.6663 14.6668 13.174 14.6668 11.333V4.66634C14.6668 2.82539 13.1744 1.33301 11.3335 1.33301Z" stroke="#0F172A" stroke-width="1.33333" stroke-linecap="round" stroke-linejoin="round"/>
<path d="M10.6667 7.5802C10.7489 8.13503 10.6542 8.70168 10.3958 9.19954C10.1375 9.69741 9.72877 10.1011 9.22776 10.3533C8.72675 10.6055 8.15897 10.6933 7.6052 10.6042C7.05143 10.515 6.53985 10.2536 6.14323 9.85698C5.74662 9.46036 5.48516 8.94878 5.39605 8.39501C5.30694 7.84124 5.39472 7.27346 5.64689 6.77245C5.89907 6.27144 6.3028 5.86269 6.80066 5.60436C7.29853 5.34603 7.86518 5.25126 8.42001 5.33353C8.98596 5.41746 9.50991 5.68118 9.91447 6.08574C10.319 6.4903 10.5828 7.01425 10.6667 7.5802Z" stroke="#0F172A" stroke-width="1.33333" stroke-linecap="round" stroke-linejoin="round"/>
<path d="M11.6665 4.33301H11.6732" stroke="#0F172A" stroke-width="1.33333" stroke-linecap="round" stroke-linejoin="round"/>
</g>
<defs>
<clipPath id="clip0_41_584">
<rect width="16" height="16" fill="white"/>
</clipPath>
</defs>
</svg>
