<?xml version="1.0" encoding="UTF-8"?>
<svg version="1.1" xmlns="http://www.w3.org/2000/svg" width="57" height="60">
<path d="M0 0 C18.81 0 37.62 0 57 0 C57 19.8 57 39.6 57 60 C38.19 60 19.38 60 0 60 C0 40.2 0 20.4 0 0 Z " fill="#EA222C" transform="translate(0,0)"/>
<path d="M0 0 C13.86 0 27.72 0 42 0 C39.49278013 7.52165961 36.89248682 14.99195145 34.18383789 22.44140625 C33.68148063 23.82703804 33.18218633 25.21378371 32.68579102 26.6015625 C31.96276273 28.62235206 31.2305233 30.63958065 30.49609375 32.65625 C29.84918579 34.44772461 29.84918579 34.44772461 29.18920898 36.27539062 C28 39 28 39 26 40 C25.9270874 39.29504395 25.8541748 38.59008789 25.77905273 37.86376953 C24.66549593 23.28127141 24.66549593 23.28127141 17.5390625 11.25390625 C14.47887124 9.08181379 11.24070381 7.393592 7.82080078 5.86083984 C4.98668828 4.52092557 2.53629929 2.83852298 0 1 C0 0.67 0 0.34 0 0 Z " fill="#F8F6F8" transform="translate(6,12)"/>
</svg>
