<svg width="20" height="20" viewBox="0 0 20 20" fill="none" xmlns="http://www.w3.org/2000/svg">
<path fill-rule="evenodd" clip-rule="evenodd" d="M11.667 4.58331C11.667 5.27366 11.1073 5.83331 10.417 5.83331C9.72664 5.83331 9.16699 5.27366 9.16699 4.58331C9.16699 3.89295 9.72664 3.33331 10.417 3.33331C11.1073 3.33331 11.667 3.89295 11.667 4.58331ZM13.3337 4.58331C13.3337 6.19413 12.0279 7.49995 10.417 7.49995C8.80613 7.49995 7.50035 6.19413 7.50035 4.58331C7.50035 2.97245 8.80617 1.66663 10.417 1.66663C12.0279 1.66663 13.3337 2.97249 13.3337 4.58331ZM4.58371 7.50006C4.81383 7.50006 5.00035 7.3135 5.00035 7.08338C5.00035 6.85327 4.81383 6.6667 4.58371 6.6667C4.35359 6.6667 4.16703 6.85327 4.16703 7.08338C4.16703 7.3135 4.35359 7.50006 4.58371 7.50006ZM4.58371 9.1667C5.7343 9.1667 6.66703 8.23397 6.66703 7.08338C6.66703 5.9328 5.7343 5.00006 4.58371 5.00006C3.43309 5.00006 2.50035 5.9328 2.50035 7.08338C2.50035 8.23397 3.43309 9.1667 4.58371 9.1667ZM11.4022 9.99991H9.16691C8.24645 9.99991 7.50023 10.7461 7.50023 11.6666V12.4788L7.50031 12.4922L7.50035 12.5001V14.1666H9.16699V14.1666C9.16699 14.751 9.26723 15.312 9.45148 15.8333H7.50035V15.8334H1.66699V12.5001C1.66699 11.1193 2.78629 10.0001 4.16699 10.0001H5.00035C5.41 10.0001 5.79664 10.0986 6.13789 10.2732C6.66551 9.12811 7.8234 8.33327 9.16691 8.33327H11.6669C12.5167 8.33327 13.2922 8.65124 13.8809 9.17467C12.9959 9.22392 12.1401 9.50883 11.4022 9.99991ZM5.83359 12.4878C5.82699 12.0332 5.45648 11.6667 5.00035 11.6667H4.16699C3.70676 11.6667 3.33367 12.0398 3.33367 12.5001V14.1667H5.83359V12.4878ZM15.3196 10.0001H13.0048V10.8919C12.6024 11.0343 12.2298 11.2497 11.9055 11.5274L11.1325 11.081L9.97512 13.0857L10.7475 13.5317C10.7089 13.7412 10.6896 13.9537 10.6896 14.1667C10.6896 14.3835 10.7095 14.5958 10.7476 14.8016L9.97508 15.2476L11.1325 17.2523L11.9056 16.806C12.2298 17.0836 12.6024 17.299 13.0048 17.4414V18.3334H15.3196V17.4412C15.7218 17.2987 16.0943 17.0833 16.4184 16.8058L17.192 17.2524L18.3494 15.2477L17.5762 14.8013C17.6148 14.592 17.6342 14.3795 17.6341 14.1667C17.6341 13.9499 17.6142 13.7378 17.5762 13.532L18.3494 13.0856L17.192 11.0809L16.4184 11.5276C16.0943 11.25 15.7219 11.0346 15.3196 10.8921V10.0001ZM14.1619 15.5556C14.9289 15.5556 15.5507 14.9338 15.5507 14.1667C15.5507 13.3997 14.9289 12.7778 14.1619 12.7778C13.3948 12.7778 12.773 13.3997 12.773 14.1667C12.773 14.9338 13.3948 15.5556 14.1619 15.5556Z" fill="black"/>
</svg>
