<svg width="46" height="46" viewBox="0 0 46 46" fill="none" xmlns="http://www.w3.org/2000/svg">
<mask id="path-1-inside-1_4034_6681" fill="white">
<path d="M0 12C0 5.37258 5.37258 0 12 0H34C40.6274 0 46 5.37258 46 12V34C46 40.6274 40.6274 46 34 46H12C5.37258 46 0 40.6274 0 34V12Z"/>
</mask>
<path d="M0 12C0 5.37258 5.37258 0 12 0H34C40.6274 0 46 5.37258 46 12V34C46 40.6274 40.6274 46 34 46H12C5.37258 46 0 40.6274 0 34V12Z" fill="#AD46FF" fill-opacity="0.1"/>
<path d="M12 0V1H34V0V-1H12V0ZM46 12H45V34H46H47V12H46ZM34 46V45H12V46V47H34V46ZM0 34H1V12H0H-1V34H0ZM12 46V45C5.92487 45 1 40.0751 1 34H0H-1C-1 41.1797 4.8203 47 12 47V46ZM46 34H45C45 40.0751 40.0751 45 34 45V46V47C41.1797 47 47 41.1797 47 34H46ZM34 0V1C40.0751 1 45 5.92487 45 12H46H47C47 4.8203 41.1797 -1 34 -1V0ZM12 0V-1C4.8203 -1 -1 4.8203 -1 12H0H1C1 5.92487 5.92487 1 12 1V0Z" fill="#E9D4FF" mask="url(#path-1-inside-1_4034_6681)"/>
<path d="M19.5807 29.6654C21.1712 30.4813 23.0008 30.7023 24.7398 30.2886C26.4788 29.8748 28.0129 28.8536 29.0655 27.4089C30.1182 25.9642 30.6202 24.191 30.4812 22.4089C30.3422 20.6267 29.5712 18.9529 28.3072 17.6889C27.0433 16.4249 25.3694 15.6539 23.5873 15.5149C21.8051 15.3759 20.032 15.8779 18.5872 16.9306C17.1425 17.9833 16.1213 19.5173 15.7076 21.2563C15.2939 22.9953 15.5148 24.8249 16.3307 26.4154L14.6641 31.3321L19.5807 29.6654Z" stroke="#9810FA" stroke-width="1.66667" stroke-linecap="round" stroke-linejoin="round"/>
</svg>
