<svg width="48" height="48" viewBox="0 0 48 48" fill="none" xmlns="http://www.w3.org/2000/svg">
<path d="M0 16C0 7.16344 7.16344 0 16 0H32C40.8366 0 48 7.16344 48 16V32C48 40.8366 40.8366 48 32 48H16C7.16344 48 0 40.8366 0 32V16Z" fill="white"/>
<path d="M19.9 32C21.8086 32.9791 24.0041 33.2443 26.0909 32.7478C28.1777 32.2514 30.0186 31.0259 31.2818 29.2922C32.545 27.5586 33.1474 25.4308 32.9806 23.2922C32.8137 21.1537 31.8886 19.145 30.3718 17.6282C28.855 16.1115 26.8464 15.1863 24.7078 15.0195C22.5693 14.8526 20.4415 15.4551 18.7078 16.7183C16.9742 17.9815 15.7487 19.8224 15.2522 21.9092C14.7558 23.996 15.0209 26.1915 16 28.1L14 34L19.9 32Z" stroke="#4F46E5" stroke-width="2" stroke-linecap="round" stroke-linejoin="round"/>
</svg>
