<svg width="46" height="46" viewBox="0 0 46 46" fill="none" xmlns="http://www.w3.org/2000/svg">
<mask id="path-1-inside-1_4034_6646" fill="white">
<path d="M0 12C0 5.37258 5.37258 0 12 0H34C40.6274 0 46 5.37258 46 12V34C46 40.6274 40.6274 46 34 46H12C5.37258 46 0 40.6274 0 34V12Z"/>
</mask>
<path d="M0 12C0 5.37258 5.37258 0 12 0H34C40.6274 0 46 5.37258 46 12V34C46 40.6274 40.6274 46 34 46H12C5.37258 46 0 40.6274 0 34V12Z" fill="#2B7FFF" fill-opacity="0.1"/>
<path d="M12 0V1H34V0V-1H12V0ZM46 12H45V34H46H47V12H46ZM34 46V45H12V46V47H34V46ZM0 34H1V12H0H-1V34H0ZM12 46V45C5.92487 45 1 40.0751 1 34H0H-1C-1 41.1797 4.8203 47 12 47V46ZM46 34H45C45 40.0751 40.0751 45 34 45V46V47C41.1797 47 47 41.1797 47 34H46ZM34 0V1C40.0751 1 45 5.92487 45 12H46H47C47 4.8203 41.1797 -1 34 -1V0ZM12 0V-1C4.8203 -1 -1 4.8203 -1 12H0H1C1 5.92487 5.92487 1 12 1V0Z" fill="#BEDBFF" mask="url(#path-1-inside-1_4034_6646)"/>
<g clip-path="url(#clip0_4034_6646)">
<path d="M19.6693 31.3346C20.1295 31.3346 20.5026 30.9615 20.5026 30.5013C20.5026 30.0411 20.1295 29.668 19.6693 29.668C19.209 29.668 18.8359 30.0411 18.8359 30.5013C18.8359 30.9615 19.209 31.3346 19.6693 31.3346Z" stroke="#155DFC" stroke-width="1.66667" stroke-linecap="round" stroke-linejoin="round"/>
<path d="M28.8333 31.3346C29.2936 31.3346 29.6667 30.9615 29.6667 30.5013C29.6667 30.0411 29.2936 29.668 28.8333 29.668C28.3731 29.668 28 30.0411 28 30.5013C28 30.9615 28.3731 31.3346 28.8333 31.3346Z" stroke="#155DFC" stroke-width="1.66667" stroke-linecap="round" stroke-linejoin="round"/>
<path d="M14.7109 14.707H16.3776L18.5943 25.057C18.6756 25.4361 18.8865 25.7749 19.1907 26.0152C19.4949 26.2556 19.8734 26.3823 20.2609 26.3737H28.4109C28.7902 26.3731 29.158 26.2431 29.4535 26.0052C29.7489 25.7673 29.9544 25.4358 30.0359 25.0654L31.4109 18.8737H17.2693" stroke="#155DFC" stroke-width="1.66667" stroke-linecap="round" stroke-linejoin="round"/>
</g>
<defs>
<clipPath id="clip0_4034_6646">
<rect width="20" height="20" fill="white" transform="translate(13 13)"/>
</clipPath>
</defs>
</svg>
