<svg width="48" height="48" viewBox="0 0 48 48" fill="none" xmlns="http://www.w3.org/2000/svg">
<path d="M0 16C0 7.16344 7.16344 0 16 0H32C40.8366 0 48 7.16344 48 16V32C48 40.8366 40.8366 48 32 48H16C7.16344 48 0 40.8366 0 32V16Z" fill="#2B7FFF" fill-opacity="0.1"/>
<path d="M24 20C25.6569 20 27 18.6569 27 17C27 15.3431 25.6569 14 24 14C22.3431 14 21 15.3431 21 17C21 18.6569 22.3431 20 24 20Z" stroke="#155DFC" stroke-width="2" stroke-linecap="round" stroke-linejoin="round"/>
<path d="M18.4997 20C18.067 20.0045 17.6474 20.1492 17.3039 20.4125C16.9604 20.6757 16.7116 21.0433 16.5947 21.46L14.0997 30.5C14.0241 30.7926 14.0158 31.0985 14.0754 31.3947C14.135 31.691 14.261 31.9699 14.4438 32.2105C14.6267 32.4511 14.8617 32.6471 15.1311 32.7839C15.4006 32.9206 15.6976 32.9945 15.9997 33H31.9997C32.3084 32.9999 32.6129 32.9283 32.8893 32.7909C33.1657 32.6535 33.4065 32.454 33.593 32.208C33.7794 31.962 33.9064 31.6762 33.9639 31.3729C34.0215 31.0697 34.0081 30.7572 33.9247 30.46L31.3997 21.5C31.2896 21.0734 31.0417 20.6951 30.6945 20.4239C30.3473 20.1526 29.9203 20.0036 29.4797 20H18.4997Z" stroke="#155DFC" stroke-width="2" stroke-linecap="round" stroke-linejoin="round"/>
</svg>
