<svg width="16" height="16" viewBox="0 0 16 16" fill="none" xmlns="http://www.w3.org/2000/svg">
<g clip-path="url(#clip0_41_2905)">
<path d="M8.00021 3.33353C8.001 3.06688 7.94846 2.80277 7.84568 2.55673C7.7429 2.31069 7.59195 2.08768 7.40173 1.90083C7.2115 1.71397 6.98583 1.56704 6.73798 1.46868C6.49014 1.37032 6.22513 1.32251 5.95854 1.32807C5.69195 1.33363 5.42917 1.39244 5.18564 1.50104C4.94211 1.60964 4.72276 1.76585 4.54048 1.96047C4.3582 2.15508 4.21668 2.38419 4.12425 2.6343C4.03181 2.88441 3.99032 3.15048 4.00221 3.41686C3.61035 3.51762 3.24655 3.70623 2.93837 3.9684C2.63019 4.23058 2.38571 4.55945 2.22344 4.9301C2.06118 5.30075 1.98539 5.70346 2.0018 6.10774C2.01822 6.51202 2.12643 6.90726 2.31821 7.26353C1.981 7.53748 1.71583 7.88968 1.54577 8.28949C1.37571 8.68929 1.30592 9.12459 1.34245 9.55752C1.37899 9.99045 1.52076 10.4079 1.75542 10.7735C1.99008 11.1392 2.31052 11.442 2.68888 11.6555C2.64216 12.017 2.67004 12.3843 2.7708 12.7345C2.87157 13.0848 3.04308 13.4108 3.27474 13.6922C3.50639 13.9736 3.79329 14.2045 4.11769 14.3707C4.4421 14.5369 4.79713 14.6348 5.16086 14.6584C5.5246 14.682 5.88931 14.6308 6.23247 14.5079C6.57563 14.3851 6.88997 14.1931 7.15605 13.944C7.42214 13.6949 7.63433 13.3939 7.77952 13.0596C7.92471 12.7252 7.99982 12.3647 8.00021 12.0002V3.33353Z" stroke="#0F172A" stroke-width="1.33333" stroke-linecap="round" stroke-linejoin="round"/>
<path d="M8.00001 3.33353C7.99922 3.06688 8.05177 2.80277 8.15455 2.55673C8.25733 2.31069 8.40827 2.08768 8.5985 1.90083C8.78872 1.71397 9.01439 1.56704 9.26224 1.46868C9.51008 1.37032 9.77509 1.32251 10.0417 1.32807C10.3083 1.33363 10.5711 1.39244 10.8146 1.50104C11.0581 1.60964 11.2775 1.76585 11.4597 1.96047C11.642 2.15508 11.7835 2.38419 11.876 2.6343C11.9684 2.88441 12.0099 3.15048 11.998 3.41686C12.3899 3.51762 12.7537 3.70623 13.0619 3.9684C13.37 4.23058 13.6145 4.55945 13.7768 4.9301C13.939 5.30075 14.0148 5.70346 13.9984 6.10774C13.982 6.51202 13.8738 6.90726 13.682 7.26353C14.0192 7.53748 14.2844 7.88968 14.4545 8.28949C14.6245 8.68929 14.6943 9.12459 14.6578 9.55752C14.6212 9.99045 14.4795 10.4079 14.2448 10.7735C14.0101 11.1392 13.6897 11.442 13.3113 11.6555C13.3581 12.017 13.3302 12.3843 13.2294 12.7345C13.1287 13.0848 12.9571 13.4108 12.7255 13.6922C12.4938 13.9736 12.2069 14.2045 11.8825 14.3707C11.5581 14.5369 11.2031 14.6348 10.8394 14.6584C10.4756 14.682 10.1109 14.6308 9.76775 14.5079C9.42459 14.3851 9.11025 14.1931 8.84417 13.944C8.57808 13.6949 8.36589 13.3939 8.2207 13.0596C8.07551 12.7252 8.0004 12.3647 8.00001 12.0002V3.33353Z" stroke="#0F172A" stroke-width="1.33333" stroke-linecap="round" stroke-linejoin="round"/>
<path d="M10 8.66667C9.4403 8.46977 8.95155 8.11133 8.59555 7.63667C8.23956 7.16201 8.0323 6.59245 8 6C7.9677 6.59245 7.76045 7.16201 7.40445 7.63667C7.04845 8.11133 6.5597 8.46977 6 8.66667" stroke="#0F172A" stroke-width="1.33333" stroke-linecap="round" stroke-linejoin="round"/>
<path d="M11.7324 4.33317C11.8938 4.05356 11.985 3.73905 11.9984 3.4165" stroke="#0F172A" stroke-width="1.33333" stroke-linecap="round" stroke-linejoin="round"/>
<path d="M4.00195 3.4165C4.01514 3.73899 4.10617 4.0535 4.26729 4.33317" stroke="#0F172A" stroke-width="1.33333" stroke-linecap="round" stroke-linejoin="round"/>
<path d="M2.31836 7.264C2.44032 7.16467 2.57083 7.07633 2.70836 7" stroke="#0F172A" stroke-width="1.33333" stroke-linecap="round" stroke-linejoin="round"/>
<path d="M13.292 7C13.4295 7.07633 13.56 7.16467 13.682 7.264" stroke="#0F172A" stroke-width="1.33333" stroke-linecap="round" stroke-linejoin="round"/>
<path d="M3.99981 11.9998C3.54036 12 3.08865 11.8815 2.68848 11.6558" stroke="#0F172A" stroke-width="1.33333" stroke-linecap="round" stroke-linejoin="round"/>
<path d="M13.3113 11.6558C12.9112 11.8815 12.4594 12 12 11.9998" stroke="#0F172A" stroke-width="1.33333" stroke-linecap="round" stroke-linejoin="round"/>
</g>
<defs>
<clipPath id="clip0_41_2905">
<rect width="16" height="16" fill="white"/>
</clipPath>
</defs>
</svg>
