<svg width="46" height="46" viewBox="0 0 46 46" fill="none" xmlns="http://www.w3.org/2000/svg">
<mask id="path-1-inside-1_4034_6663" fill="white">
<path d="M0 12C0 5.37258 5.37258 0 12 0H34C40.6274 0 46 5.37258 46 12V34C46 40.6274 40.6274 46 34 46H12C5.37258 46 0 40.6274 0 34V12Z"/>
</mask>
<path d="M0 12C0 5.37258 5.37258 0 12 0H34C40.6274 0 46 5.37258 46 12V34C46 40.6274 40.6274 46 34 46H12C5.37258 46 0 40.6274 0 34V12Z" fill="#00C950" fill-opacity="0.1"/>
<path d="M12 0V1H34V0V-1H12V0ZM46 12H45V34H46H47V12H46ZM34 46V45H12V46V47H34V46ZM0 34H1V12H0H-1V34H0ZM12 46V45C5.92487 45 1 40.0751 1 34H0H-1C-1 41.1797 4.8203 47 12 47V46ZM46 34H45C45 40.0751 40.0751 45 34 45V46V47C41.1797 47 47 41.1797 47 34H46ZM34 0V1C40.0751 1 45 5.92487 45 12H46H47C47 4.8203 41.1797 -1 34 -1V0ZM12 0V-1C4.8203 -1 -1 4.8203 -1 12H0H1C1 5.92487 5.92487 1 12 1V0Z" fill="#B9F8CF" mask="url(#path-1-inside-1_4034_6663)"/>
<path d="M19.6641 14.668V18.0013" stroke="#00A63E" stroke-width="1.66667" stroke-linecap="round" stroke-linejoin="round"/>
<path d="M26.3359 14.668V18.0013" stroke="#00A63E" stroke-width="1.66667" stroke-linecap="round" stroke-linejoin="round"/>
<path d="M28.8333 16.332H17.1667C16.2462 16.332 15.5 17.0782 15.5 17.9987V29.6654C15.5 30.5858 16.2462 31.332 17.1667 31.332H28.8333C29.7538 31.332 30.5 30.5858 30.5 29.6654V17.9987C30.5 17.0782 29.7538 16.332 28.8333 16.332Z" stroke="#00A63E" stroke-width="1.66667" stroke-linecap="round" stroke-linejoin="round"/>
<path d="M15.5 21.332H30.5" stroke="#00A63E" stroke-width="1.66667" stroke-linecap="round" stroke-linejoin="round"/>
</svg>
