<svg width="20" height="20" viewBox="0 0 20 20" fill="none" xmlns="http://www.w3.org/2000/svg">
<path d="M18.3332 10H13.3332L11.6665 12.5H8.33317L6.6665 10H1.6665" stroke="black" stroke-width="1.66667" stroke-linecap="round" stroke-linejoin="round"/>
<path d="M4.54199 4.25801L1.66699 9.99967V14.9997C1.66699 15.4417 1.84259 15.8656 2.15515 16.1782C2.46771 16.4907 2.89163 16.6663 3.33366 16.6663H16.667C17.109 16.6663 17.5329 16.4907 17.8455 16.1782C18.1581 15.8656 18.3337 15.4417 18.3337 14.9997V9.99967L15.4587 4.25801C15.3207 3.98033 15.108 3.74665 14.8445 3.58324C14.5809 3.41983 14.2771 3.33317 13.967 3.33301H6.03366C5.72359 3.33317 5.41971 3.41983 5.1562 3.58324C4.89268 3.74665 4.67997 3.98033 4.54199 4.25801Z" stroke="black" stroke-width="1.66667" stroke-linecap="round" stroke-linejoin="round"/>
</svg>
