<svg width="20" height="20" viewBox="0 0 20 20" fill="none" xmlns="http://www.w3.org/2000/svg">
<g clip-path="url(#clip0_41_731)">
<path d="M6.66659 18.3337C7.12682 18.3337 7.49992 17.9606 7.49992 17.5003C7.49992 17.0401 7.12682 16.667 6.66659 16.667C6.20635 16.667 5.83325 17.0401 5.83325 17.5003C5.83325 17.9606 6.20635 18.3337 6.66659 18.3337Z" stroke="#0F172A" stroke-width="1.66667" stroke-linecap="round" stroke-linejoin="round"/>
<path d="M15.8333 18.3337C16.2936 18.3337 16.6667 17.9606 16.6667 17.5003C16.6667 17.0401 16.2936 16.667 15.8333 16.667C15.3731 16.667 15 17.0401 15 17.5003C15 17.9606 15.3731 18.3337 15.8333 18.3337Z" stroke="#0F172A" stroke-width="1.66667" stroke-linecap="round" stroke-linejoin="round"/>
<path d="M1.70825 1.70801H3.37492L5.59159 12.058C5.6729 12.4371 5.88381 12.7759 6.18801 13.0162C6.49221 13.2565 6.87067 13.3833 7.25825 13.3747H15.4083C15.7876 13.3741 16.1553 13.2441 16.4508 13.0062C16.7462 12.7683 16.9517 12.4368 17.0333 12.0663L18.4083 5.87467H4.26659" stroke="#0F172A" stroke-width="1.66667" stroke-linecap="round" stroke-linejoin="round"/>
</g>
<defs>
<clipPath id="clip0_41_731">
<rect width="20" height="20" fill="white"/>
</clipPath>
</defs>
</svg>
