<svg width="32" height="32" viewBox="0 0 32 32" fill="none" xmlns="http://www.w3.org/2000/svg">
<path d="M10.6666 29.3332C11.403 29.3332 11.9999 28.7362 11.9999 27.9998C11.9999 27.2635 11.403 26.6665 10.6666 26.6665C9.93021 26.6665 9.33325 27.2635 9.33325 27.9998C9.33325 28.7362 9.93021 29.3332 10.6666 29.3332Z" stroke="#4F46E5" stroke-width="2.66667" stroke-linecap="round" stroke-linejoin="round"/>
<path d="M25.3333 29.3332C26.0697 29.3332 26.6667 28.7362 26.6667 27.9998C26.6667 27.2635 26.0697 26.6665 25.3333 26.6665C24.597 26.6665 24 27.2635 24 27.9998C24 28.7362 24.597 29.3332 25.3333 29.3332Z" stroke="#4F46E5" stroke-width="2.66667" stroke-linecap="round" stroke-linejoin="round"/>
<path d="M2.7334 2.7334H5.40007L8.94673 19.2934C9.07684 19.8999 9.41429 20.442 9.90101 20.8265C10.3877 21.2111 10.9933 21.4139 11.6134 21.4001H24.6534C25.2603 21.3991 25.8487 21.1911 26.3214 20.8105C26.7942 20.4299 27.1229 19.8994 27.2534 19.3067L29.4534 9.40007H6.82673" stroke="#4F46E5" stroke-width="2.66667" stroke-linecap="round" stroke-linejoin="round"/>
</svg>
