<svg width="46" height="46" viewBox="0 0 46 46" fill="none" xmlns="http://www.w3.org/2000/svg">
<mask id="path-1-inside-1_4034_6729" fill="white">
<path d="M0 12C0 5.37258 5.37258 0 12 0H34C40.6274 0 46 5.37258 46 12V34C46 40.6274 40.6274 46 34 46H12C5.37258 46 0 40.6274 0 34V12Z"/>
</mask>
<path d="M0 12C0 5.37258 5.37258 0 12 0H34C40.6274 0 46 5.37258 46 12V34C46 40.6274 40.6274 46 34 46H12C5.37258 46 0 40.6274 0 34V12Z" fill="#6A7282" fill-opacity="0.1"/>
<path d="M12 0V1H34V0V-1H12V0ZM46 12H45V34H46H47V12H46ZM34 46V45H12V46V47H34V46ZM0 34H1V12H0H-1V34H0ZM12 46V45C5.92487 45 1 40.0751 1 34H0H-1C-1 41.1797 4.8203 47 12 47V46ZM46 34H45C45 40.0751 40.0751 45 34 45V46V47C41.1797 47 47 41.1797 47 34H46ZM34 0V1C40.0751 1 45 5.92487 45 12H46H47C47 4.8203 41.1797 -1 34 -1V0ZM12 0V-1C4.8203 -1 -1 4.8203 -1 12H0H1C1 5.92487 5.92487 1 12 1V0Z" fill="#E5E7EB" mask="url(#path-1-inside-1_4034_6729)"/>
<path d="M23.1824 14.668H22.8157C22.3737 14.668 21.9497 14.8436 21.6372 15.1561C21.3246 15.4687 21.149 15.8926 21.149 16.3346V16.4846C21.1487 16.7769 21.0716 17.064 20.9253 17.317C20.779 17.57 20.5688 17.7802 20.3157 17.9263L19.9574 18.1346C19.704 18.2809 19.4166 18.3579 19.124 18.3579C18.8315 18.3579 18.5441 18.2809 18.2907 18.1346L18.1657 18.068C17.7832 17.8474 17.3289 17.7875 16.9024 17.9016C16.4758 18.0156 16.112 18.2942 15.8907 18.6763L15.7074 18.993C15.4867 19.3754 15.4269 19.8298 15.5409 20.2563C15.655 20.6828 15.9336 21.0467 16.3157 21.268L16.4407 21.3513C16.6926 21.4967 16.902 21.7055 17.0482 21.957C17.1944 22.2084 17.2723 22.4938 17.274 22.7846V23.2096C17.2752 23.5033 17.1987 23.7921 17.0524 24.0467C16.9061 24.3014 16.695 24.5128 16.4407 24.6596L16.3157 24.7346C15.9336 24.9559 15.655 25.3198 15.5409 25.7463C15.4269 26.1728 15.4867 26.6272 15.7074 27.0096L15.8907 27.3263C16.112 27.7084 16.4758 27.987 16.9024 28.101C17.3289 28.2151 17.7832 28.1552 18.1657 27.9346L18.2907 27.868C18.5441 27.7217 18.8315 27.6447 19.124 27.6447C19.4166 27.6447 19.704 27.7217 19.9574 27.868L20.3157 28.0763C20.5688 28.2224 20.779 28.4326 20.9253 28.6856C21.0716 28.9386 21.1487 29.2257 21.149 29.518V29.668C21.149 30.11 21.3246 30.5339 21.6372 30.8465C21.9497 31.159 22.3737 31.3346 22.8157 31.3346H23.1824C23.6244 31.3346 24.0483 31.159 24.3609 30.8465C24.6734 30.5339 24.849 30.11 24.849 29.668V29.518C24.8493 29.2257 24.9265 28.9386 25.0727 28.6856C25.219 28.4326 25.4292 28.2224 25.6824 28.0763L26.0407 27.868C26.2941 27.7217 26.5815 27.6447 26.874 27.6447C27.1666 27.6447 27.454 27.7217 27.7074 27.868L27.8324 27.9346C28.2148 28.1552 28.6692 28.2151 29.0957 28.101C29.5222 27.987 29.8861 27.7084 30.1074 27.3263L30.2907 27.0013C30.5113 26.6189 30.5712 26.1645 30.4571 25.738C30.343 25.3114 30.0644 24.9476 29.6824 24.7263L29.5574 24.6596C29.303 24.5128 29.092 24.3014 28.9457 24.0467C28.7993 23.7921 28.7229 23.5033 28.724 23.2096V22.793C28.7229 22.4993 28.7993 22.2105 28.9457 21.9559C29.092 21.7012 29.303 21.4898 29.5574 21.343L29.6824 21.268C30.0644 21.0467 30.343 20.6828 30.4571 20.2563C30.5712 19.8298 30.5113 19.3754 30.2907 18.993L30.1074 18.6763C29.8861 18.2942 29.5222 18.0156 29.0957 17.9016C28.6692 17.7875 28.2148 17.8474 27.8324 18.068L27.7074 18.1346C27.454 18.2809 27.1666 18.3579 26.874 18.3579C26.5815 18.3579 26.2941 18.2809 26.0407 18.1346L25.6824 17.9263C25.4292 17.7802 25.219 17.57 25.0727 17.317C24.9265 17.064 24.8493 16.7769 24.849 16.4846V16.3346C24.849 15.8926 24.6734 15.4687 24.3609 15.1561C24.0483 14.8436 23.6244 14.668 23.1824 14.668Z" stroke="#4A5565" stroke-width="1.66667" stroke-linecap="round" stroke-linejoin="round"/>
<path d="M23 25.5C24.3807 25.5 25.5 24.3807 25.5 23C25.5 21.6193 24.3807 20.5 23 20.5C21.6193 20.5 20.5 21.6193 20.5 23C20.5 24.3807 21.6193 25.5 23 25.5Z" stroke="#4A5565" stroke-width="1.66667" stroke-linecap="round" stroke-linejoin="round"/>
</svg>
